<svg version="1.1" xmlns="http://www.w3.org/2000/svg" xmlns:xlink="http://www.w3.org/1999/xlink" width="700" height="700" viewBox="610,109.5,700,700"><g id="document" fill="#ffffff" fill-rule="nonzero" stroke="#000000" stroke-width="0" stroke-linecap="butt" stroke-linejoin="miter" stroke-miterlimit="10" stroke-dasharray="" stroke-dashoffset="0" font-family="none" font-weight="none" font-size="none" text-anchor="none" style="mix-blend-mode: normal"><rect x="610" y="78.21429" transform="scale(1,1.4)" width="700" height="500" id="Shape 1 1" vector-effect="non-scaling-stroke"/></g><g fill="none" fill-rule="nonzero" stroke-opacity="0" stroke="#000000" stroke-width="1" stroke-linecap="round" stroke-linejoin="round" stroke-miterlimit="10" stroke-dasharray="" stroke-dashoffset="0" font-family="none" font-weight="none" font-size="none" text-anchor="none" style="mix-blend-mode: normal"><g id="stage"><g id="layer1 1"><path d="M637.5,459.5c0,-178.11183 144.38817,-322.5 322.5,-322.5c178.11183,0 322.5,144.38817 322.5,322.5c0,178.11183 -144.38817,322.5 -322.5,322.5c-178.11183,0 -322.5,-144.38817 -322.5,-322.5z" id="Path 1" fill="#8c8c8c"/><path d="M644.5,447c0,-167.89456 136.10544,-304 304,-304c167.89456,0 304,136.10544 304,304c0,167.89456 -136.10544,304 -304,304c-167.89456,0 -304,-136.10544 -304,-304z" id="Path 1" fill="#323232"/><path d="M1066,278.25c0,-28.30459 22.94541,-51.25 51.25,-51.25c28.30459,0 51.25,22.94541 51.25,51.25c0,28.30459 -22.94541,51.25 -51.25,51.25c-28.30459,0 -51.25,-22.94541 -51.25,-51.25z" id="Path 1" fill="#f2f2f2"/></g></g></g></svg>